<mxfile type="github" version="12.5.1" etag="T3MwK0YE472MM_s_LWqJ" agent="Mozilla/5.0 (Windows NT 10.0; Win64; x64) AppleWebKit/537.36 (KHTML, like Gecko) Chrome/70.0.3538.102 Safari/537.36 Edge/18.18363" modified="2020-01-10T10:59:58.780Z" host="www.draw.io">
  <diagram id="C5RBs43oDa-KdzZeNtuy" name="Page-1">
    <mxGraphModel grid="1" dx="865" dy="480" gridSize="10" guides="1" tooltips="1" connect="1" arrows="1" fold="1" page="1" pageScale="1" pageWidth="1169" pageHeight="827" math="0" shadow="0">
      <root>
        <mxCell id="WIyWlLk6GJQsqaUBKTNV-0"/>
        <mxCell id="WIyWlLk6GJQsqaUBKTNV-1" parent="WIyWlLk6GJQsqaUBKTNV-0"/>
        <mxCell id="gYuljT_NruUoef0fMrFO-0" value="" parent="WIyWlLk6GJQsqaUBKTNV-1" vertex="1" style="rounded=0;whiteSpace=wrap;html=1;fillColor=none;dashed=1;strokeWidth=3;strokeColor=#5E5E5E;">
          <mxGeometry as="geometry" x="160" y="160" width="700" height="280"/>
        </mxCell>
        <mxCell id="GxkiA4aT5WZfQ0APfjsJ-1" value="출발" parent="WIyWlLk6GJQsqaUBKTNV-1" vertex="1" style="rounded=1;whiteSpace=wrap;html=1;fontSize=12;glass=0;strokeWidth=1;shadow=0;fontStyle=1">
          <mxGeometry as="geometry" x="80" y="272.5" width="60" height="40"/>
        </mxCell>
        <mxCell id="GxkiA4aT5WZfQ0APfjsJ-4" value="" parent="WIyWlLk6GJQsqaUBKTNV-1" style="rounded=0;html=1;jettySize=auto;orthogonalLoop=1;fontSize=11;endArrow=block;endFill=0;endSize=8;strokeWidth=1;shadow=0;labelBackgroundColor=none;edgeStyle=orthogonalEdgeStyle;exitX=1;exitY=0.5;exitDx=0;exitDy=0;entryX=0;entryY=0.5;entryDx=0;entryDy=0;" source="GxkiA4aT5WZfQ0APfjsJ-1" target="GxkiA4aT5WZfQ0APfjsJ-28" edge="1">
          <mxGeometry as="geometry" relative="1">
            <mxPoint as="sourcePoint" x="560" y="412.5"/>
            <mxPoint as="targetPoint" x="220" y="292.5"/>
          </mxGeometry>
        </mxCell>
        <mxCell id="GxkiA4aT5WZfQ0APfjsJ-28" value="라인 센서에서&lt;br&gt;어느 위치에 차선이&lt;br&gt;존재하는가?" parent="WIyWlLk6GJQsqaUBKTNV-1" vertex="1" style="rhombus;whiteSpace=wrap;html=1;shadow=0;fontFamily=Helvetica;fontSize=12;align=center;strokeWidth=1;spacing=6;spacingTop=-4;fontStyle=1">
          <mxGeometry as="geometry" x="180" y="240" width="130" height="105"/>
        </mxCell>
        <mxCell id="GxkiA4aT5WZfQ0APfjsJ-29" value="좌측" parent="WIyWlLk6GJQsqaUBKTNV-1" vertex="1" style="rounded=1;whiteSpace=wrap;html=1;fontSize=12;glass=0;strokeWidth=1;shadow=0;fontStyle=1">
          <mxGeometry as="geometry" x="350" y="220" width="60" height="40"/>
        </mxCell>
        <mxCell id="GxkiA4aT5WZfQ0APfjsJ-30" value="중앙" parent="WIyWlLk6GJQsqaUBKTNV-1" vertex="1" style="rounded=1;whiteSpace=wrap;html=1;fontSize=12;glass=0;strokeWidth=1;shadow=0;fontStyle=1">
          <mxGeometry as="geometry" x="350" y="272.5" width="60" height="40"/>
        </mxCell>
        <mxCell id="GxkiA4aT5WZfQ0APfjsJ-31" value="우측" parent="WIyWlLk6GJQsqaUBKTNV-1" vertex="1" style="rounded=1;whiteSpace=wrap;html=1;fontSize=12;glass=0;strokeWidth=1;shadow=0;fontStyle=1">
          <mxGeometry as="geometry" x="350" y="324" width="60" height="40"/>
        </mxCell>
        <mxCell id="GxkiA4aT5WZfQ0APfjsJ-32" value="" parent="WIyWlLk6GJQsqaUBKTNV-1" style="rounded=0;html=1;jettySize=auto;orthogonalLoop=1;fontSize=11;endArrow=block;endFill=0;endSize=8;strokeWidth=1;shadow=0;labelBackgroundColor=none;edgeStyle=orthogonalEdgeStyle;exitX=1;exitY=0.5;exitDx=0;exitDy=0;entryX=0;entryY=0.5;entryDx=0;entryDy=0;" source="GxkiA4aT5WZfQ0APfjsJ-28" target="GxkiA4aT5WZfQ0APfjsJ-29" edge="1">
          <mxGeometry as="geometry" relative="1">
            <mxPoint as="sourcePoint" x="140" y="303"/>
            <mxPoint as="targetPoint" x="180" y="303"/>
          </mxGeometry>
        </mxCell>
        <mxCell id="GxkiA4aT5WZfQ0APfjsJ-33" value="" parent="WIyWlLk6GJQsqaUBKTNV-1" style="rounded=0;html=1;jettySize=auto;orthogonalLoop=1;fontSize=11;endArrow=block;endFill=0;endSize=8;strokeWidth=1;shadow=0;labelBackgroundColor=none;edgeStyle=orthogonalEdgeStyle;exitX=1;exitY=0.5;exitDx=0;exitDy=0;entryX=0;entryY=0.5;entryDx=0;entryDy=0;" source="GxkiA4aT5WZfQ0APfjsJ-28" target="GxkiA4aT5WZfQ0APfjsJ-30" edge="1">
          <mxGeometry as="geometry" relative="1">
            <mxPoint as="sourcePoint" x="310" y="303"/>
            <mxPoint as="targetPoint" x="360" y="250"/>
          </mxGeometry>
        </mxCell>
        <mxCell id="GxkiA4aT5WZfQ0APfjsJ-34" value="" parent="WIyWlLk6GJQsqaUBKTNV-1" style="rounded=0;html=1;jettySize=auto;orthogonalLoop=1;fontSize=11;endArrow=block;endFill=0;endSize=8;strokeWidth=1;shadow=0;labelBackgroundColor=none;edgeStyle=orthogonalEdgeStyle;exitX=1;exitY=0.5;exitDx=0;exitDy=0;entryX=0;entryY=0.5;entryDx=0;entryDy=0;" source="GxkiA4aT5WZfQ0APfjsJ-28" target="GxkiA4aT5WZfQ0APfjsJ-31" edge="1">
          <mxGeometry as="geometry" relative="1">
            <mxPoint as="sourcePoint" x="310" y="303"/>
            <mxPoint as="targetPoint" x="360" y="303"/>
          </mxGeometry>
        </mxCell>
        <mxCell id="GxkiA4aT5WZfQ0APfjsJ-35" value="좌로 조향" parent="WIyWlLk6GJQsqaUBKTNV-1" vertex="1" style="rounded=1;whiteSpace=wrap;html=1;fontSize=12;glass=0;strokeWidth=1;shadow=0;fontStyle=1">
          <mxGeometry as="geometry" x="440" y="220" width="70" height="40"/>
        </mxCell>
        <mxCell id="GxkiA4aT5WZfQ0APfjsJ-36" value="중앙으로&lt;br&gt;조향" parent="WIyWlLk6GJQsqaUBKTNV-1" vertex="1" style="rounded=1;whiteSpace=wrap;html=1;fontSize=12;glass=0;strokeWidth=1;shadow=0;fontStyle=1">
          <mxGeometry as="geometry" x="440" y="272.5" width="70" height="40"/>
        </mxCell>
        <mxCell id="GxkiA4aT5WZfQ0APfjsJ-37" value="우로 조향" parent="WIyWlLk6GJQsqaUBKTNV-1" vertex="1" style="rounded=1;whiteSpace=wrap;html=1;fontSize=12;glass=0;strokeWidth=1;shadow=0;fontStyle=1">
          <mxGeometry as="geometry" x="440" y="324" width="70" height="40"/>
        </mxCell>
        <mxCell id="GxkiA4aT5WZfQ0APfjsJ-38" value="" parent="WIyWlLk6GJQsqaUBKTNV-1" style="rounded=0;html=1;jettySize=auto;orthogonalLoop=1;fontSize=11;endArrow=block;endFill=0;endSize=8;strokeWidth=1;shadow=0;labelBackgroundColor=none;edgeStyle=orthogonalEdgeStyle;exitX=1;exitY=0.5;exitDx=0;exitDy=0;entryX=0;entryY=0.5;entryDx=0;entryDy=0;" source="GxkiA4aT5WZfQ0APfjsJ-29" target="GxkiA4aT5WZfQ0APfjsJ-35" edge="1">
          <mxGeometry as="geometry" relative="1">
            <mxPoint as="sourcePoint" x="310" y="303"/>
            <mxPoint as="targetPoint" x="360" y="250"/>
          </mxGeometry>
        </mxCell>
        <mxCell id="GxkiA4aT5WZfQ0APfjsJ-39" value="" parent="WIyWlLk6GJQsqaUBKTNV-1" style="rounded=0;html=1;jettySize=auto;orthogonalLoop=1;fontSize=11;endArrow=block;endFill=0;endSize=8;strokeWidth=1;shadow=0;labelBackgroundColor=none;edgeStyle=orthogonalEdgeStyle;exitX=1;exitY=0.5;exitDx=0;exitDy=0;entryX=0;entryY=0.5;entryDx=0;entryDy=0;" source="GxkiA4aT5WZfQ0APfjsJ-30" target="GxkiA4aT5WZfQ0APfjsJ-36" edge="1">
          <mxGeometry as="geometry" relative="1">
            <mxPoint as="sourcePoint" x="420" y="250"/>
            <mxPoint as="targetPoint" x="420" y="270"/>
          </mxGeometry>
        </mxCell>
        <mxCell id="GxkiA4aT5WZfQ0APfjsJ-40" value="" parent="WIyWlLk6GJQsqaUBKTNV-1" style="rounded=0;html=1;jettySize=auto;orthogonalLoop=1;fontSize=11;endArrow=block;endFill=0;endSize=8;strokeWidth=1;shadow=0;labelBackgroundColor=none;edgeStyle=orthogonalEdgeStyle;exitX=1;exitY=0.5;exitDx=0;exitDy=0;entryX=0;entryY=0.5;entryDx=0;entryDy=0;" source="GxkiA4aT5WZfQ0APfjsJ-31" target="GxkiA4aT5WZfQ0APfjsJ-37" edge="1">
          <mxGeometry as="geometry" relative="1">
            <mxPoint as="sourcePoint" x="420" y="303"/>
            <mxPoint as="targetPoint" x="420" y="320"/>
          </mxGeometry>
        </mxCell>
        <mxCell id="GxkiA4aT5WZfQ0APfjsJ-41" value="랜덤박스가&lt;br&gt;초음파 거리센서에&lt;br&gt;인지되는가?" parent="WIyWlLk6GJQsqaUBKTNV-1" vertex="1" style="rhombus;whiteSpace=wrap;html=1;shadow=0;fontFamily=Helvetica;fontSize=12;align=center;strokeWidth=1;spacing=6;spacingTop=-4;fontStyle=1">
          <mxGeometry as="geometry" x="555" y="240" width="130" height="105"/>
        </mxCell>
        <mxCell id="GxkiA4aT5WZfQ0APfjsJ-42" value="" parent="WIyWlLk6GJQsqaUBKTNV-1" style="rounded=0;html=1;jettySize=auto;orthogonalLoop=1;fontSize=11;endArrow=block;endFill=0;endSize=8;strokeWidth=1;shadow=0;labelBackgroundColor=none;edgeStyle=orthogonalEdgeStyle;exitX=1;exitY=0.5;exitDx=0;exitDy=0;entryX=0;entryY=0.5;entryDx=0;entryDy=0;" source="GxkiA4aT5WZfQ0APfjsJ-35" target="GxkiA4aT5WZfQ0APfjsJ-41" edge="1">
          <mxGeometry as="geometry" relative="1">
            <mxPoint as="sourcePoint" x="320" y="303"/>
            <mxPoint as="targetPoint" x="360" y="250"/>
          </mxGeometry>
        </mxCell>
        <mxCell id="GxkiA4aT5WZfQ0APfjsJ-43" value="" parent="WIyWlLk6GJQsqaUBKTNV-1" style="rounded=0;html=1;jettySize=auto;orthogonalLoop=1;fontSize=11;endArrow=block;endFill=0;endSize=8;strokeWidth=1;shadow=0;labelBackgroundColor=none;edgeStyle=orthogonalEdgeStyle;exitX=1;exitY=0.5;exitDx=0;exitDy=0;entryX=0;entryY=0.5;entryDx=0;entryDy=0;" source="GxkiA4aT5WZfQ0APfjsJ-36" target="GxkiA4aT5WZfQ0APfjsJ-41" edge="1">
          <mxGeometry as="geometry" relative="1">
            <mxPoint as="sourcePoint" x="520" y="250"/>
            <mxPoint as="targetPoint" x="560" y="210"/>
          </mxGeometry>
        </mxCell>
        <mxCell id="GxkiA4aT5WZfQ0APfjsJ-44" value="" parent="WIyWlLk6GJQsqaUBKTNV-1" style="rounded=0;html=1;jettySize=auto;orthogonalLoop=1;fontSize=11;endArrow=block;endFill=0;endSize=8;strokeWidth=1;shadow=0;labelBackgroundColor=none;edgeStyle=orthogonalEdgeStyle;exitX=1;exitY=0.5;exitDx=0;exitDy=0;entryX=0;entryY=0.5;entryDx=0;entryDy=0;" source="GxkiA4aT5WZfQ0APfjsJ-37" target="GxkiA4aT5WZfQ0APfjsJ-41" edge="1">
          <mxGeometry as="geometry" relative="1">
            <mxPoint as="sourcePoint" x="520" y="250"/>
            <mxPoint as="targetPoint" x="530" y="310"/>
          </mxGeometry>
        </mxCell>
        <mxCell id="GxkiA4aT5WZfQ0APfjsJ-46" value="&lt;b&gt;네&lt;/b&gt;" parent="WIyWlLk6GJQsqaUBKTNV-1" style="edgeStyle=orthogonalEdgeStyle;rounded=0;html=1;jettySize=auto;orthogonalLoop=1;fontSize=11;endArrow=block;endFill=0;endSize=8;strokeWidth=1;shadow=0;labelBackgroundColor=none;exitX=0.5;exitY=1;exitDx=0;exitDy=0;entryX=0.5;entryY=0;entryDx=0;entryDy=0;" source="GxkiA4aT5WZfQ0APfjsJ-41" target="GxkiA4aT5WZfQ0APfjsJ-47" edge="1">
          <mxGeometry as="geometry" x="-0.7196" y="10" relative="1">
            <mxPoint as="offset"/>
            <mxPoint as="sourcePoint" x="510" y="530"/>
            <mxPoint as="targetPoint" x="620" y="410"/>
          </mxGeometry>
        </mxCell>
        <mxCell id="GxkiA4aT5WZfQ0APfjsJ-47" value="랜덤한 모터 속도&lt;br&gt;재설정" parent="WIyWlLk6GJQsqaUBKTNV-1" vertex="1" style="rounded=1;whiteSpace=wrap;html=1;fontSize=12;glass=0;strokeWidth=1;shadow=0;fontStyle=1">
          <mxGeometry as="geometry" x="567.5" y="380" width="105" height="40"/>
        </mxCell>
        <mxCell id="GxkiA4aT5WZfQ0APfjsJ-48" value="설정된 모터 속도로&lt;br&gt;모터 주행" parent="WIyWlLk6GJQsqaUBKTNV-1" vertex="1" style="rounded=1;whiteSpace=wrap;html=1;fontSize=12;glass=0;strokeWidth=1;shadow=0;fontStyle=1">
          <mxGeometry as="geometry" x="720" y="272.5" width="120" height="40"/>
        </mxCell>
        <mxCell id="GxkiA4aT5WZfQ0APfjsJ-49" value="&lt;b&gt;아니오&lt;/b&gt;" parent="WIyWlLk6GJQsqaUBKTNV-1" style="rounded=0;html=1;jettySize=auto;orthogonalLoop=1;fontSize=11;endArrow=block;endFill=0;endSize=8;strokeWidth=1;shadow=0;labelBackgroundColor=none;edgeStyle=orthogonalEdgeStyle;exitX=1;exitY=0.5;exitDx=0;exitDy=0;entryX=0;entryY=0.5;entryDx=0;entryDy=0;" source="GxkiA4aT5WZfQ0APfjsJ-41" target="GxkiA4aT5WZfQ0APfjsJ-48" edge="1">
          <mxGeometry as="geometry" x="-0.1429" y="13" relative="1">
            <mxPoint as="offset"/>
            <mxPoint as="sourcePoint" x="630" y="450"/>
            <mxPoint as="targetPoint" x="630" y="480"/>
          </mxGeometry>
        </mxCell>
        <mxCell id="GxkiA4aT5WZfQ0APfjsJ-51" value="" parent="WIyWlLk6GJQsqaUBKTNV-1" style="rounded=0;html=1;jettySize=auto;orthogonalLoop=1;fontSize=11;endArrow=block;endFill=0;endSize=8;strokeWidth=1;shadow=0;labelBackgroundColor=none;edgeStyle=orthogonalEdgeStyle;exitX=1;exitY=0.5;exitDx=0;exitDy=0;entryX=0.5;entryY=1;entryDx=0;entryDy=0;" source="GxkiA4aT5WZfQ0APfjsJ-47" target="GxkiA4aT5WZfQ0APfjsJ-48" edge="1">
          <mxGeometry as="geometry" relative="1">
            <mxPoint as="sourcePoint" x="520.2" y="354"/>
            <mxPoint as="targetPoint" x="565" y="302.4"/>
          </mxGeometry>
        </mxCell>
        <mxCell id="gYuljT_NruUoef0fMrFO-3" value="이전 조향각 유지" parent="WIyWlLk6GJQsqaUBKTNV-1" vertex="1" style="rounded=1;whiteSpace=wrap;html=1;fontSize=12;glass=0;strokeWidth=1;shadow=0;fontStyle=1">
          <mxGeometry as="geometry" x="370" y="380" width="110" height="40"/>
        </mxCell>
        <mxCell id="gYuljT_NruUoef0fMrFO-4" value="" parent="WIyWlLk6GJQsqaUBKTNV-1" style="rounded=0;html=1;jettySize=auto;orthogonalLoop=1;fontSize=11;endArrow=block;endFill=0;endSize=8;strokeWidth=1;shadow=0;labelBackgroundColor=none;edgeStyle=orthogonalEdgeStyle;exitX=0.5;exitY=1;exitDx=0;exitDy=0;entryX=0;entryY=0.5;entryDx=0;entryDy=0;" source="GxkiA4aT5WZfQ0APfjsJ-28" target="gYuljT_NruUoef0fMrFO-3" edge="1">
          <mxGeometry as="geometry" relative="1">
            <mxPoint as="sourcePoint" x="150" y="303"/>
            <mxPoint as="targetPoint" x="190" y="303"/>
          </mxGeometry>
        </mxCell>
        <mxCell id="gYuljT_NruUoef0fMrFO-5" value="" parent="WIyWlLk6GJQsqaUBKTNV-1" style="rounded=0;html=1;jettySize=auto;orthogonalLoop=1;fontSize=11;endArrow=block;endFill=0;endSize=8;strokeWidth=1;shadow=0;labelBackgroundColor=none;edgeStyle=orthogonalEdgeStyle;exitX=1;exitY=0.5;exitDx=0;exitDy=0;entryX=0;entryY=0.5;entryDx=0;entryDy=0;" source="gYuljT_NruUoef0fMrFO-3" target="GxkiA4aT5WZfQ0APfjsJ-41" edge="1">
          <mxGeometry as="geometry" relative="1">
            <mxPoint as="sourcePoint" x="483" y="400"/>
            <mxPoint as="targetPoint" x="550" y="293"/>
            <Array as="points">
              <mxPoint x="533" y="400"/>
              <mxPoint x="533" y="293"/>
            </Array>
          </mxGeometry>
        </mxCell>
        <mxCell id="gYuljT_NruUoef0fMrFO-6" value="&lt;b&gt;라인 검출 안됨&lt;br&gt;&lt;/b&gt;" parent="WIyWlLk6GJQsqaUBKTNV-1" vertex="1" style="text;html=1;align=center;verticalAlign=middle;resizable=0;points=[];autosize=1;">
          <mxGeometry as="geometry" x="250" y="380" width="100" height="20"/>
        </mxCell>
        <mxCell id="gYuljT_NruUoef0fMrFO-8" value="&lt;b style=&quot;font-size: 23px&quot;&gt;&lt;font style=&quot;font-size: 23px&quot;&gt;반복&lt;/font&gt;&lt;br&gt;&lt;/b&gt;" parent="WIyWlLk6GJQsqaUBKTNV-1" vertex="1" style="text;html=1;align=center;verticalAlign=middle;resizable=0;points=[];autosize=1;">
          <mxGeometry as="geometry" x="460" y="170" width="60" height="20"/>
        </mxCell>
      </root>
    </mxGraphModel>
  </diagram>
</mxfile>
